{"title":"Dawn of the Planet of the Apes (2014) TS [RUS]","uid":10661945,"size":762136898,"categoryP":"video","categoryS":"movies","magnet":"?xt=urn:btih:180155c35bf883f8f11d499db5dc565c6e498dd0&amp;dn=Dawn+of+the+Planet+of+the+Apes+%282014%29+TS+%5BRUS%5D&amp;tr=udp%3A%2F%2Ftracker.openbittorrent.com%3A80&amp;tr=udp%3A%2F%2Fopen.demonii.com%3A1337&amp;tr=udp%3A%2F%2Ftracker.coppersurfer.tk%3A6969&amp;tr=udp%3A%2F%2Fexodus.desync.com%3A6969","seeders":3,"leechers":1,"uploader":"yfjfrj","files":1,"time":1406739254,"description":"Dawn of the Planet of the Apes (2014) TS [RUS]\n\nLanguage - Russian!!!!\nSubtitles - Russian, for monkey's speach\n\nIn the wake of a disaster that changed the world, the growing and genetically evolving apes find themselves at a critical point with the human race.\n\nMediaInfo:\nGeneral\nComplete name                            : C:UsersIvanDesktopDawn.of.the.Planet.of.the.Apes.2014.D.TS.Sub(Rus)_726MB.avi\nFormat                                   : AVI\nFormat/Info                              : Audio Video Interleave\nFile size                                : 727 MiB\nDuration                                 : 2h 1mn\nOverall bit rate                         : 837 Kbps\nWriting application                      : VirtualDubMod 1.5.10.3 | www.virtualdub-fr.org || (build 2550/release)\nWriting library                          : VirtualDub build 35491/release\n\nVideo\nID                                       : 0\nFormat                                   : MPEG-4 Visual\nFormat profile                           : Advanced Simple@L5\nFormat settings, BVOP                    : 2\nFormat settings, QPel                    : No\nFormat settings, GMC                     : No warppoints\nFormat settings, Matrix                  : Default (H.263)\nMuxing mode                              : Packed bitstream\nCodec ID                                 : XVID\nCodec ID/Hint                            : XviD\nDuration                                 : 2h 1mn\nBit rate                                 : 700 Kbps\nWidth                                    : 640 pixels\nHeight                                   : 272 pixels\nDisplay aspect ratio                     : 2.35:1\nFrame rate                               : 24.000 fps\nColor space                              : YUV\nChroma subsampling                       : 4:2:0\nBit depth                                : 8 bits\nScan type                                : Progressive\nCompression mode                         : Lossy\nBits/(Pixel*Frame)                       : 0.167\nStream size                              : 607 MiB (84%)\nWriting library                          : XviD 64\n\nAudio\nID                                       : 1\nFormat                                   : MPEG Audio\nFormat version                           : Version 1\nFormat profile                           : Layer 3\nMode                                     : Joint stereo\nMode extension                           : MS Stereo\nCodec ID                                 : 55\nCodec ID/Hint                            : MP3\nDuration                                 : 2h 1mn\nBit rate mode                            : Constant\nBit rate                                 : 128 Kbps\nChannel(s)                               : 2 channels\nSampling rate                            : 48.0 KHz\nCompression mode                         : Lossy\nStream size                              : 111 MiB (15%)\nAlignment                                : Split accross interleaves\nInterleave, duration                     : 42 ms (1.00 video frame)\nInterleave, preload duration             : 500 ms\n\nScreenshots: &lt;a href=&quot;\nhttp://i5.imageban.ru/out/2014/07/30/ab533aad9c1e1124edf3c9189505d178.png&quot; rel=&quot;nofollow&quot; target=&quot;_NEW&quot;&gt;\nhttp://i5.imageban.ru/out/2014/07/30/ab533aad9c1e1124edf3c9189505d178.png&lt;/a&gt; &lt;a href=&quot;\nhttp://i5.imageban.ru/out/2014/07/30/fb4a39dc1887a980e32538b25291922c.png&quot; rel=&quot;nofollow&quot; target=&quot;_NEW&quot;&gt;\nhttp://i5.imageban.ru/out/2014/07/30/fb4a39dc1887a980e32538b25291922c.png&lt;/a&gt; &lt;a href=&quot;\nhttp://i4.imageban.ru/out/2014/07/30/35b5ac2a53845142bd7f397e11a47bb7.png&quot; rel=&quot;nofollow&quot; target=&quot;_NEW&quot;&gt;\nhttp://i4.imageban.ru/out/2014/07/30/35b5ac2a53845142bd7f397e11a47bb7.png&lt;/a&gt; &lt;a href=&quot;\nhttp://i5.imageban.ru/out/2014/07/30/c94ba434cdfd537d28454e85bd2901ed.png&quot; rel=&quot;nofollow&quot; target=&quot;_NEW&quot;&gt;\nhttp://i5.imageban.ru/out/2014/07/30/c94ba434cdfd537d28454e85bd2901ed.png&lt;/a&gt; &lt;a href=&quot;\nhttp://i1.imageban.ru/out/2014/07/30/3575b383ca9cd982b4b186d1ea921a97.png&quot; rel=&quot;nofollow&quot; target=&quot;_NEW&quot;&gt;\nhttp://i1.imageban.ru/out/2014/07/30/3575b383ca9cd982b4b186d1ea921a97.png&lt;/a&gt; &lt;a href=&quot;\nhttp://i1.imageban.ru/out/2014/07/30/e7c4d52bbd6d4cc37fe2e9dd918f96f3.png&quot; rel=&quot;nofollow&quot; target=&quot;_NEW&quot;&gt;\nhttp://i1.imageban.ru/out/2014/07/30/e7c4d52bbd6d4cc37fe2e9dd918f96f3.png&lt;/a&gt; &lt;a href=&quot;\nhttp://i1.imageban.ru/out/2014/07/30/e79e52e4d0a51989fa452e214a431f1a.png&quot; rel=&quot;nofollow&quot; target=&quot;_NEW&quot;&gt;\nhttp://i1.imageban.ru/out/2014/07/30/e79e52e4d0a51989fa452e214a431f1a.png&lt;/a&gt; &lt;a href=&quot;\nhttp://i1.imageban.ru/out/2014/07/30/692c5b8a3e20599f09af6e9d63f81c2c.png&quot; rel=&quot;nofollow&quot; target=&quot;_NEW&quot;&gt;\nhttp://i1.imageban.ru/out/2014/07/30/692c5b8a3e20599f09af6e9d63f81c2c.png&lt;/a&gt; &lt;a href=&quot;\nhttp://i4.imageban.ru/out/2014/07/30/e745fc9bd04009f56b948ee84290d210.png&quot; rel=&quot;nofollow&quot; target=&quot;_NEW&quot;&gt;\nhttp://i4.imageban.ru/out/2014/07/30/e745fc9bd04009f56b948ee84290d210.png&lt;/a&gt; &lt;a href=&quot;\nhttp://i5.imageban.ru/out/2014/07/30/1021e99e2b58bf1650355792a62f9f90.png&quot; rel=&quot;nofollow&quot; target=&quot;_NEW&quot;&gt;\nhttp://i5.imageban.ru/out/2014/07/30/1021e99e2b58bf1650355792a62f9f90.png&lt;/a&gt; &lt;a href=&quot;\nhttp://i1.imageban.ru/out/2014/07/30/f69ad2c243680ee1f7a9f9b292af7ee0.png&quot; rel=&quot;nofollow&quot; target=&quot;_NEW&quot;&gt;\nhttp://i1.imageban.ru/out/2014/07/30/f69ad2c243680ee1f7a9f9b292af7ee0.png&lt;/a&gt; &lt;a href=&quot;\nhttp://i6.imageban.ru/out/2014/07/30/9a3724c164aab263b6bc8df35515c2a0.png&quot; rel=&quot;nofollow&quot; target=&quot;_NEW&quot;&gt;\nhttp://i6.imageban.ru/out/2014/07/30/9a3724c164aab263b6bc8df35515c2a0.png&lt;/a&gt;","torrent":{"xt":"urn:btih:180155c35bf883f8f11d499db5dc565c6e498dd0","amp;dn":"Dawn+of+the+Planet+of+the+Apes+%282014%29+TS+%5BRUS%5D","amp;tr":["udp%3A%2F%2Ftracker.openbittorrent.com%3A80","udp%3A%2F%2Fopen.demonii.com%3A1337","udp%3A%2F%2Ftracker.coppersurfer.tk%3A6969","udp%3A%2F%2Fexodus.desync.com%3A6969"],"infoHash":"180155c35bf883f8f11d499db5dc565c6e498dd0","infoHashBuffer":{"type":"Buffer","data":[24,1,85,195,91,248,131,248,241,29,73,157,181,220,86,92,110,73,141,208]},"announce":[],"urlList":[]}}